# xmcd
#
# Track frame offsets: 
#        150
#        14106
#        32093
#        52726
#        71818
#        91552
#        112800
#        130190
#        150333
#        168787
#        189032
#
# Disc length: 2734 seconds
#
# Revision: 1
# Processed by: cddbd v1.5.1PL0 Copyright (c) Steve Scherf et al.
# Submitted via: ExactAudioCopy v0.95a5
#
DISCID=760aac0b
DTITLE=LaShell Griffin - Free
DYEAR=2004
DGENRE=Christian
TTITLE0=You Are Mine
TTITLE1=Free
TTITLE2=Learn to Breathe
TTITLE3=Get Away
TTITLE4=I Can Only Imagine
TTITLE5=Man From Galilee
TTITLE6=Rise
TTITLE7=He's Coming Again
TTITLE8=This Is Who I Am
TTITLE9=Faith (featuring Lee Griffin)
TTITLE10=Better Days
EXTD=EK 92499\nD153071
EXTT0=
EXTT1=
EXTT2=
EXTT3=
EXTT4=
EXTT5=
EXTT6=
EXTT7=
EXTT8=
EXTT9=
EXTT10=
PLAYORDER=
